<svg width="20" height="20" viewBox="0 0 20 20" fill="none" xmlns="http://www.w3.org/2000/svg">
<g clip-path="url(#clip0_2122_2371)">
<path d="M10.0002 20.0005C15.5232 20.0005 20.0005 15.5232 20.0005 10.0002C20.0005 4.47726 15.5232 0 10.0002 0C4.47726 0 0 4.47726 0 10.0002C0 15.5232 4.47726 20.0005 10.0002 20.0005Z" fill="black"/>
<g clip-path="url(#clip1_2122_2371)">
<path d="M10.6189 6.43686L12.992 7.05958C13.3188 6.72686 13.6689 6.3579 14.0349 6.00284C14.4009 5.64778 14.8761 5.64381 15.1929 5.97553C15.5097 6.30725 15.4869 6.74971 15.1333 7.10874C14.8746 7.37094 14.601 7.61824 14.4232 7.78757C14.8125 8.2345 15.1795 8.64518 15.5331 9.06628C15.7148 9.28263 15.883 9.51 16.0366 9.7471C16.2929 10.1444 16.2099 10.5913 15.8509 10.8396C15.4919 11.0879 15.0564 10.9935 14.7554 10.635C14.4078 10.2198 14.087 9.76945 13.6808 9.41985C11.1284 7.22395 7.28777 7.72451 5.33817 10.4756C5.20384 10.6688 5.02319 10.8252 4.81278 10.9305C4.5188 11.0665 4.16722 10.9245 3.97157 10.6708C3.77293 10.4086 3.72625 10.0391 3.95567 9.76101C4.43041 9.18596 4.94885 8.64468 5.44841 8.09198C5.52728 8.01421 5.61016 7.94061 5.69671 7.8715C5.42557 7.60781 5.16337 7.36597 4.91558 7.11023C4.55952 6.74375 4.54661 6.26603 4.87187 5.9507C5.1882 5.64232 5.64952 5.65821 6.01402 5.98646C6.39192 6.3291 6.77231 6.66876 7.17156 7.02929C7.73916 6.89322 8.41302 6.73779 9.07944 6.56398C9.14698 6.5466 9.22395 6.41898 9.22842 6.33853C9.24679 6.04605 9.22843 5.75207 9.23786 5.45858C9.25028 4.97491 9.51644 4.67249 9.92314 4.66802C10.3378 4.66355 10.6005 4.95306 10.6184 5.4417C10.6248 5.61551 10.6208 5.78931 10.6208 5.96312C10.6208 6.13692 10.6189 6.30725 10.6189 6.43686Z" fill="#F9F6FB"/>
<path d="M9.99506 15.2609C13.5407 15.2609 16.4149 13.3631 16.4149 11.0221C16.4149 8.681 13.5407 6.7832 9.99506 6.7832C6.44947 6.7832 3.5752 8.681 3.5752 11.0221C3.5752 13.3631 6.44947 15.2609 9.99506 15.2609Z" fill="#F9F6FB"/>
<path d="M9.95392 13.6158C11.4313 13.6158 12.629 12.4182 12.629 10.9407C12.629 9.46331 11.4313 8.26562 9.95392 8.26562C8.4765 8.26562 7.27881 9.46331 7.27881 10.9407C7.27881 12.4182 8.4765 13.6158 9.95392 13.6158Z" fill="black"/>
</g>
</g>
<defs>
<clipPath id="clip0_2122_2371">
<rect width="20" height="20" fill="white"/>
</clipPath>
<clipPath id="clip1_2122_2371">
<rect width="12.8397" height="10.5937" fill="white" transform="translate(3.5752 4.66797)"/>
</clipPath>
</defs>
</svg>
