<svg width="525" height="278" viewBox="0 0 525 278" fill="none" xmlns="http://www.w3.org/2000/svg">
<path d="M522.83 163.65C515.38 154.19 506.93 145.52 499.18 136.92C499.475 136.123 499.839 135.353 500.27 134.62C520.12 112.36 520.12 112.36 497.88 92.4305C356.58 -34.1695 141.76 -30.2595 9.19012 101.35C-3.01988 113.47 -3.05995 115.24 9.12005 127.29C14.1701 132.29 19.4101 137.12 25.3701 142.81C17.0701 152.56 8.80003 161.4 1.72003 171.11C-0.389973 174 0.840096 179.32 0.540096 183.53C4.2601 182.33 9.1001 182.21 11.5401 179.73C19.9601 171.04 27.54 161.54 35.98 151.73L65.73 172.96C58.99 183.73 52.1601 193.66 46.5301 204.22C44.6901 207.67 45.99 212.78 45.86 217.13C49.78 215.3 55.1101 214.5 57.3701 211.44C64.5401 201.71 70.5701 191.14 77.5301 180.13L109.96 196.94C104.82 208.58 99.33 219.72 95.12 231.33C93.78 235.01 95.86 239.93 96.37 244.28C100.01 241.93 105.22 240.42 106.99 237.08C112.85 226.08 117.47 214.41 122.76 202.54L156.76 214.39C153.59 226.39 149.87 238.26 147.6 250.39C146.83 254.51 149.7 259.3 150.91 263.79C153.91 260.64 158.36 258.01 159.7 254.27C163.91 242.56 166.96 230.43 170.53 218.18L205.78 225.33C204.26 238.21 202.31 250.55 201.65 262.96C201.44 266.8 204.76 270.81 206.46 274.75C209.27 271.46 213.83 268.52 214.57 264.82C217.02 252.59 218.1 240.07 219.8 226.96L256.61 229.41C256.61 242.49 256.06 255.04 256.95 267.48C257.21 271.09 261.56 274.42 264.04 277.88C266.04 274.48 269.69 271.18 269.89 267.68C270.61 255.18 270.18 242.62 270.18 229.13L306.18 225.84C308.12 237.99 309.44 249.1 311.81 259.97C312.98 265.31 311.52 274.67 321.2 272.41C323.45 271.88 325.05 262.95 324.71 258.03C323.95 246.92 321.79 235.91 320.08 224.03L355.02 215.6C359.15 228.09 362.6 240.15 367.28 251.72C368.71 255.27 373.5 257.45 376.76 260.26C377.76 255.94 380.31 251.26 379.39 247.35C376.63 235.63 372.51 224.23 368.61 211.74L402.61 198.59C407.94 209.59 412.49 220.32 418.28 230.32C420.51 234.16 425.57 236.32 429.33 239.32C429.58 234.24 431.39 228.6 429.78 224.21C425.94 213.74 420.48 203.86 415.28 192.9C425.77 187.01 435.79 181.36 447.05 175.03C454.05 185.33 460.66 195.85 468.18 205.69C470.33 208.5 475.05 209.35 478.6 211.1C478.91 206.88 480.93 201.69 479.2 198.62C473.26 188.1 466 178.33 458.83 167.62L487.83 145.3C496.31 154.51 504.38 163.96 513.31 172.52C515.7 174.8 520.71 174.33 524.52 175.12C524.02 171.23 524.9 166.28 522.83 163.65ZM488.19 114.83C356.62 244.43 141.93 234.72 24.9301 114.71C143.81 -6.46953 358.11 -13.8795 488.19 114.83Z" fill="#FC7F59"/>
</svg>
