<svg xmlns="http://www.w3.org/2000/svg" width="653" height="319" fill="none" viewBox="0 0 653 319"><path fill="#FC6D42" d="M442.973 202.729C451.312 216.58 459.983 228.448 465.696 241.588C468.552 248.145 465.976 257.04 465.849 264.867C458.555 261.945 448.89 261.004 444.478 255.693C434.404 243.545 426.907 229.287 417.955 215.258L360.422 235.132C365.523 249.339 371.643 262.504 374.525 276.38C376.106 284.004 372.179 292.798 370.751 301.057C363.84 296.305 354.251 293.052 350.553 286.52C342.903 272.797 341.831 249.085 331.427 244.536C315.105 237.369 293.173 242.63 270.884 242.63C269.992 262.529 270.553 279.125 268.028 295.237C266.727 303.573 260.02 311.096 255.736 319C251.324 311.376 244.056 303.929 242.985 295.797C240.996 279.379 242.373 262.529 242.373 243.926L184.84 227.559C178.286 243.036 173.364 258.463 165.28 272.034C161.403 278.591 151.585 281.666 144.47 286.342C143.144 277.397 138.655 267.46 141.18 259.784C145.873 245.603 154.62 232.743 162.194 218.384L105.783 181.203C94.9192 193.351 83.9787 206.922 71.4316 218.816C67.3768 222.654 59.1141 222.069 52.764 223.518C53.2996 216.427 51.0809 206.516 54.9317 202.755C67.3258 190.632 81.9641 180.746 95.7353 169.995L89.7422 163.464C80.3319 150.63 70.8961 137.821 60.2872 123.385C46.414 134.364 33.3569 145.725 19.1266 155.357C14.2812 158.635 6.37555 157.593 0 158.508C1.60664 151.595 1.02008 142.599 5.25345 138.177C15.6838 127.147 29.3275 119.116 39.6304 108.01C44.2718 102.927 46.567 93.1168 45.5469 86.077C42.8437 67.1179 37.8963 48.4892 33.6884 29.7333L42.1296 26.1753C46.771 33.7996 51.693 41.424 55.9518 49.0483C71.2531 77.0041 82.1936 108.391 101.856 132.789C165.331 211.345 249.768 229.694 346.065 210.048C438.102 191.267 494.819 132.153 533.327 51.1831C534.468 48.5308 535.833 45.9802 537.408 43.5588C544.625 33.5201 545.466 10.6725 563.981 20.33C581.578 29.5046 564.517 44.2958 560.717 56.1897C558.32 63.6616 553.908 70.4726 548.986 80.4604C568.316 92.2527 587.851 103.105 606.034 115.863C611.594 119.776 613.455 128.951 617 135.711C609.732 136.423 601.112 139.981 595.425 137.338C575.176 127.858 555.948 116.269 534.653 104.553L506.907 145.979C522.514 159.22 538.326 170.961 551.842 184.914C557.095 190.301 557.172 200.645 559.62 208.752C550.771 207.507 539.805 209.108 533.506 204.457C518.409 193.3 505.453 179.221 490.79 165.446L442.973 202.729Z"/></svg>