<svg xmlns="http://www.w3.org/2000/svg" width="556" height="305" fill="none" viewBox="0 0 556 305"><path fill="#FC6D42" d="M555.26 119.059C549.39 119.969 542.49 119.219 537.84 122.059C523.96 130.649 510.95 140.669 497.84 149.939L477.45 132.139C488.83 117.829 499.24 105.879 508.12 92.8693C510.68 89.1193 508.82 82.3593 508.98 76.9693C503.55 77.5493 497.17 76.5293 492.91 79.0693C486.25 83.0693 480.91 89.2893 475.23 94.8093C453.53 115.939 453.57 115.979 426.97 98.0593C433.07 80.1193 439.81 62.2193 444.97 43.8793C446.4 38.7693 443.15 32.3393 442.04 26.5193C436.73 30.0593 429.16 32.3893 426.52 37.3393C417.6 54.0593 410.42 71.7093 402.08 90.1193L350.42 77.4893C353.6 57.8793 357.62 39.8193 358.94 21.5693C359.45 14.6193 353.77 7.2193 350.94 0.0292969C346.31 5.6393 339.12 10.6093 337.54 16.9693C333.01 35.3093 330.74 54.2193 327.43 73.8393L276.06 70.3393C276.06 59.0593 276.18 49.8693 276.06 40.6893C275.94 31.5093 276.36 22.0793 274.83 13.0493C274.12 8.80932 269.39 5.24933 266.47 1.37933C262.47 4.84933 256.29 7.65934 255.02 11.9493C252.22 21.2993 251.49 31.3793 250.72 41.2193C248.18 73.6893 248.32 73.7093 215.85 77.2193C214.62 77.3493 213.31 76.6593 212.03 76.3393C208.81 58.9793 206.43 41.4193 201.96 24.3993C200.51 18.8793 193.59 14.7993 189.17 10.0693C186.43 16.0693 181.17 22.1793 181.42 28.0693C182.32 46.3193 185.33 64.4593 187.66 83.7493L152.29 94.4893C148.19 79.0793 145.57 65.4893 140.84 52.6493C136.84 41.8593 135.96 25.3993 119.03 28.7493C116.35 29.2793 115.56 49.4493 117.34 59.9493C119.83 74.6293 125.56 88.7593 130.2 104.079L95.2 120.989C86.33 107.359 78.68 94.2693 69.58 82.2693C65.76 77.2693 58.88 74.4993 53.39 70.7293C52.76 77.8393 49.48 86.1393 52.04 91.8193C58.17 105.419 67.04 117.819 75.39 131.609L46.6 155.349C36.77 142.629 28.23 130.249 18.09 119.349C15.37 116.419 7.80001 117.989 2.46001 117.499C2.13001 122.799 -0.329994 129.299 1.85001 133.199C9.53001 146.949 18.79 159.819 27.46 173.029L21.81 175.029C21.42 185.329 16.51 200.789 21.4 205.029C49.53 229.659 77.58 256.109 110.13 273.609C180.77 311.609 257.66 307.239 334.76 297.849C405.2 289.269 465.16 263.149 512.13 208.129C523.5 194.819 525.13 185.239 515.85 173.129C529.08 160.559 542.08 149.389 553.38 136.699C556.61 133.079 554.75 125.049 555.26 119.059ZM45.75 200.489C45.75 200.489 272.21 -25.6907 495.17 189.389C495.14 189.339 296.3 386.649 45.75 200.489Z"/></svg>