<svg xmlns="http://www.w3.org/2000/svg" width="105" height="91" fill="none" viewBox="0 0 105 91"><g clip-path="url(#clip0_1392_390)"><path fill="#EC4405" d="M88.6298 62.2517C86.5027 65.5278 83.8145 68.4559 80.6723 70.9197C77.5978 73.303 74.2164 75.3185 70.6064 76.9196C64.8556 79.6334 58.5849 81.2565 52.1563 81.6952C45.7277 82.1339 39.2686 81.3794 33.1518 79.4754C28.9038 78.2048 24.8962 76.3174 21.2765 73.8827C18.9322 72.3189 16.8218 70.4701 15.001 68.3855C13.3071 66.2151 12.0661 63.7666 11.3428 61.1682C10.893 59.5653 12.1215 59.4313 13.8819 60.0959C16.1305 60.9895 18.2001 62.2337 20.0022 63.7751C22.9612 67.1606 26.6974 69.8823 30.9342 71.7387C35.3729 73.7126 40.129 74.9907 45.0115 75.5217C51.0521 76.2592 57.4885 74.9553 63.3306 73.001C69.8334 70.9826 75.605 67.315 80.0002 62.4084C82.6428 59.3481 84.6072 55.8275 85.7791 52.0512C87.5847 46.1695 87.9473 39.9825 86.8401 33.9495C85.9006 29.3142 84.2889 24.8194 82.0496 20.5892C81.5745 19.6553 81.0311 18.7716 80.5559 17.8378C79.0359 14.2755 78.8151 13.0252 80.1135 11.4051C80.3357 11.0552 80.5811 10.7186 80.8483 10.3972C81.6018 9.55079 83.9044 10.2822 85.8288 12.8401C87.3219 14.7276 88.58 16.7673 89.579 18.92C90.6448 21.1034 91.5487 23.3524 92.2844 25.6512C93.8047 30.3993 94.6161 35.3199 94.6957 40.2739C94.9293 47.9925 92.8819 55.6202 88.778 62.3208L88.6298 62.2517Z"/><path fill="#EC4405" d="M24.7855 27.5223C26.135 30.7728 29.5478 34.4584 33.4074 35.0988C35.0716 35.3785 37.1619 34.4376 37.0397 32.5675C36.6698 29.3083 35.0851 26.2731 32.5625 23.9918C31.4914 22.8654 30.132 22.0106 28.6115 21.5073C28.0819 21.393 27.5312 21.3941 27.0024 21.5106C26.4735 21.6272 25.9807 21.856 25.5621 22.1793C25.1435 22.5025 24.8105 22.9116 24.5889 23.3747C24.3673 23.8378 24.2631 24.3424 24.2844 24.8494C24.184 28.286 29.9053 28.3513 30.0052 24.913L30.0114 24.4696L29.1713 26.3319L28.5673 26.6671L26.4283 26.3817C28.6915 27.3216 31.1743 30.0968 31.3368 32.488L34.9657 29.9465C33.9543 29.6567 33.0203 29.1697 32.2254 28.5178C31.4304 27.8659 30.7928 27.0639 30.3546 26.1649C30.142 25.4913 29.6621 24.9185 29.0128 24.5635C28.3636 24.2084 27.5939 24.0979 26.8608 24.2544C26.1298 24.4384 25.5059 24.8834 25.1236 25.4933C24.7413 26.1032 24.6313 26.8292 24.8174 27.5146L24.7855 27.5223Z"/><path fill="#EC4405" d="M39.6118 16.5173C40.9932 19.8375 44.5797 23.8462 48.5336 24.529C50.1977 24.8082 52.2963 23.8548 52.1629 21.9869C51.74 18.6003 50.0752 15.4535 47.451 13.0803C46.3718 11.9319 44.9947 11.0614 43.452 10.5526C42.9275 10.4367 42.3816 10.4341 41.8562 10.5452C41.3307 10.6562 40.8394 10.8779 40.42 11.1934C40.0005 11.5088 39.6639 11.9097 39.4359 12.3653C39.2079 12.8209 39.0946 13.3192 39.1045 13.8221C39.0075 17.2707 44.7398 17.3315 44.8287 13.8959L44.8454 13.45L44.0053 15.3123L43.3901 15.6496L41.2182 15.3728C43.5764 16.3554 46.2577 19.4253 46.4342 21.9015L50.0664 19.3697C48.1791 19.0454 45.7979 16.8087 45.1445 15.156C43.8292 11.9852 38.2688 13.2965 39.6073 16.5057L39.6118 16.5173Z"/></g><defs><clipPath id="clip0_1392_390"><rect width="87.615" height="72.348" fill="#fff" transform="matrix(0.971556 -0.236809 0.270188 0.962808 0 20.748)"/></clipPath></defs></svg>