<svg width="525" height="278" viewBox="0 0 525 278" fill="none" xmlns="http://www.w3.org/2000/svg">
<path d="M524.471 102.73C520.661 103.52 515.651 103.05 513.261 105.33C504.331 113.89 496.261 123.33 487.781 132.55L458.781 110.23C465.951 99.56 473.211 89.79 479.151 79.23C480.881 76.16 478.861 70.97 478.551 66.75C475.001 68.5 470.281 69.35 468.131 72.16C460.611 82 453.991 92.52 447.001 102.82C435.741 96.49 425.721 90.82 415.231 84.95C420.431 73.95 425.891 64.11 429.731 53.64C431.341 49.25 429.531 43.64 429.281 38.53C425.521 41.48 420.461 43.69 418.231 47.53C412.441 57.53 407.891 68.24 402.561 79.26L368.561 66.11C372.461 53.62 376.561 42.22 379.341 30.5C380.261 26.62 377.681 21.91 376.711 17.59C373.451 20.4 368.661 22.59 367.231 26.13C362.551 37.7 359.101 49.76 354.971 62.25L320.071 53.85C321.781 41.96 323.941 30.95 324.701 19.85C325.041 14.93 323.441 6 321.191 5.47C311.511 3.21 312.971 12.57 311.801 17.91C309.431 28.78 308.111 39.91 306.171 52.04L270.171 48.75C270.171 35.26 270.601 22.75 269.881 10.2C269.681 6.70001 266.071 3.4 264.031 0C261.551 3.46 257.201 6.78999 256.941 10.4C256.051 22.84 256.601 35.4 256.601 48.47L219.791 50.92C218.091 37.81 217.011 25.29 214.561 13.06C213.821 9.36 209.261 6.42 206.451 3.13C204.751 7.07 201.451 11.13 201.641 14.92C202.301 27.33 204.251 39.67 205.771 52.55L170.521 59.7C166.951 47.45 163.901 35.32 159.691 23.61C158.351 19.87 153.921 17.24 150.901 14.09C149.691 18.58 146.821 23.37 147.591 27.49C149.861 39.61 153.591 51.49 156.751 63.49L122.751 75.34C117.461 63.47 112.841 51.8 106.981 40.8C105.211 37.46 99.9813 35.95 96.3613 33.6C95.8513 37.95 93.7713 42.87 95.1113 46.55C99.3213 58.16 104.811 69.3 109.951 80.94L77.5213 97.75C70.5213 86.75 64.5213 76.17 57.3613 66.44C55.1013 63.38 49.7713 62.58 45.8513 60.75C45.9813 65.1 44.6813 70.21 46.5213 73.66C52.1513 84.22 58.9813 94.15 65.7213 104.92L35.9713 126.15C27.5213 116.32 19.9713 106.82 11.5313 98.15C9.13134 95.67 4.29134 95.55 0.531337 94.35C0.831337 98.56 -0.39867 103.88 1.71133 106.77C8.79133 116.48 17.0613 125.32 25.3613 135.07C19.3613 140.76 14.1613 145.58 9.11129 150.59C-3.06871 162.64 -3.0287 164.41 9.1813 176.53C141.721 308.11 356.571 312.03 497.851 185.42C520.091 165.49 520.091 165.49 500.241 143.23C499.811 142.497 499.446 141.727 499.151 140.93C506.901 132.33 515.351 123.66 522.801 114.2C524.871 111.57 523.991 106.62 524.471 102.73ZM24.9013 163.14C141.901 43.14 356.591 33.42 488.161 163.02C358.081 291.73 143.781 284.32 24.9013 163.14Z" fill="#FC6D42"/>
</svg>
